<svg xmlns="http://www.w3.org/2000/svg" viewBox="0 0 106.23 37.95">
  <defs>
    <style>
      .cls-1 {
        fill: #e8e8e8;
      }
    </style>
  </defs>
  <title>premiun-white</title>
  <g id="Layer_2" data-name="Layer 2">
    <g id="Template_producto" data-name="Template producto">
      <g>
        <g>
          <path class="cls-1" d="M30.74,12.93c-2.8,1.88-4.4,4.4-4.16,7.79s2.14,5.65,5.2,7.13a19.09,19.09,0,0,1-2.6,5.23,29.7,29.7,0,0,1-2.58,3.2,5,5,0,0,1-5.82,1.2,23.86,23.86,0,0,0-2.43-.88,8,8,0,0,0-5,.51,12.65,12.65,0,0,1-2.6.79,4.34,4.34,0,0,1-3.78-1.37,21.51,21.51,0,0,1-4.41-6A21.75,21.75,0,0,1,0,20.09a11.2,11.2,0,0,1,3-7.86,8.87,8.87,0,0,1,7.74-2.88,18.53,18.53,0,0,1,3,.87l.27.11a4.68,4.68,0,0,0,4.25,0,11.36,11.36,0,0,1,4.1-1.16,9.19,9.19,0,0,1,8.3,3.57A1.82,1.82,0,0,1,30.74,12.93Z"/>
          <path class="cls-1" d="M23.65,0a6.72,6.72,0,0,1-.38,3.2,8.11,8.11,0,0,1-5.91,5.45,4.49,4.49,0,0,1-.71.1c-.9.07-.94.06-.88-.83a8.28,8.28,0,0,1,4.72-7A7.08,7.08,0,0,1,23.65,0Z"/>
        </g>
        <g>
          <path class="cls-1" d="M44.83,8.85H49a3.46,3.46,0,0,1,2.51.93,3.24,3.24,0,0,1,1,2.44,3.16,3.16,0,0,1-1,2.43,3.64,3.64,0,0,1-2.58.93h-2v3h-2.1Zm2.1,1.67v3.39h1.52a2.06,2.06,0,0,0,1.41-.44,1.58,1.58,0,0,0,.5-1.25A1.6,1.6,0,0,0,49.86,11a2,2,0,0,0-1.4-.44Z"/>
          <path class="cls-1" d="M54.21,18.6V11.15h2v1.19h.13a1.64,1.64,0,0,1,.7-.94A2.2,2.2,0,0,1,58.26,11a2.52,2.52,0,0,1,.79.09v1.79a2.85,2.85,0,0,0-1-.12,2,2,0,0,0-1.35.45,1.56,1.56,0,0,0-.51,1.23V18.6Z"/>
          <path class="cls-1" d="M65.18,16.48h1.88a2.59,2.59,0,0,1-1.16,1.67,4.18,4.18,0,0,1-2.34.61,3.61,3.61,0,0,1-2.73-1,3.92,3.92,0,0,1-1-2.83,4,4,0,0,1,1-2.87A4,4,0,0,1,66.17,12a3.85,3.85,0,0,1,.95,2.77v.6H61.86v.1a1.88,1.88,0,0,0,.49,1.31,1.67,1.67,0,0,0,1.26.48,2.24,2.24,0,0,0,1-.2A1.13,1.13,0,0,0,65.18,16.48Zm-1.64-4a1.6,1.6,0,0,0-1.16.44,1.73,1.73,0,0,0-.51,1.16h3.26a1.71,1.71,0,0,0-.46-1.17A1.53,1.53,0,0,0,63.54,12.49Z"/>
          <path class="cls-1" d="M68.77,18.6V11.15h2v1.22h.13a2,2,0,0,1,.8-1,2.6,2.6,0,0,1,2.66,0,2,2,0,0,1,.77,1h.13a2.15,2.15,0,0,1,.89-1A2.68,2.68,0,0,1,77.52,11a2.44,2.44,0,0,1,1.81.68A2.49,2.49,0,0,1,80,13.49V18.6H78V14a1.15,1.15,0,0,0-1.28-1.32,1.3,1.3,0,0,0-1,.38,1.35,1.35,0,0,0-.37,1V18.6H73.41V13.93a1.23,1.23,0,0,0-.33-.92,1.42,1.42,0,0,0-1.9.08,1.44,1.44,0,0,0-.38,1V18.6Z"/>
          <path class="cls-1" d="M83,10.11a1.3,1.3,0,0,1-.87-.28,1,1,0,0,1,0-1.44,1.51,1.51,0,0,1,1.74,0,.95.95,0,0,1,0,1.44A1.3,1.3,0,0,1,83,10.11ZM82,18.6V11.15h2V18.6Z"/>
          <path class="cls-1" d="M93,11.15V18.6H91v-1.2h-.12a2.19,2.19,0,0,1-2.24,1.36,2.62,2.62,0,0,1-2-.73A2.77,2.77,0,0,1,86,16V11.15h2V15.5q0,1.55,1.41,1.55a1.5,1.5,0,0,0,1.15-.43,1.65,1.65,0,0,0,.4-1.18v-4.3Z"/>
          <path class="cls-1" d="M95,18.6V11.15h2v1.22h.13a2,2,0,0,1,.8-1,2.6,2.6,0,0,1,2.66,0,2,2,0,0,1,.77,1h.13a2.15,2.15,0,0,1,.89-1,2.68,2.68,0,0,1,1.42-.37,2.44,2.44,0,0,1,1.81.68,2.49,2.49,0,0,1,.67,1.82V18.6h-2V14a1.15,1.15,0,0,0-1.28-1.32,1.3,1.3,0,0,0-1,.38,1.35,1.35,0,0,0-.37,1V18.6H99.64V13.93A1.23,1.23,0,0,0,99.3,13a1.42,1.42,0,0,0-1.9.08,1.44,1.44,0,0,0-.38,1V18.6Z"/>
          <path class="cls-1" d="M46.93,31.67V35.2h-2.1V25.45H49a3.8,3.8,0,0,1,2.6.84,2.89,2.89,0,0,1,1,2.29,3,3,0,0,1-.48,1.69,2.72,2.72,0,0,1-1.34,1.08l2.11,3.85H50.51l-1.87-3.53Zm0-4.57v3h1.84a1.78,1.78,0,0,0,1.23-.4,1.57,1.57,0,0,0,0-2.2,1.8,1.8,0,0,0-1.24-.4Z"/>
          <path class="cls-1" d="M59.21,33.08h1.88a2.59,2.59,0,0,1-1.16,1.67,4.19,4.19,0,0,1-2.34.61,3.61,3.61,0,0,1-2.73-1,3.92,3.92,0,0,1-1-2.83,4,4,0,0,1,1-2.87,3.52,3.52,0,0,1,2.69-1.05,3.48,3.48,0,0,1,2.64,1,3.85,3.85,0,0,1,.95,2.77V32H55.9v.1a1.88,1.88,0,0,0,.49,1.31,1.67,1.67,0,0,0,1.26.48,2.24,2.24,0,0,0,1-.2A1.13,1.13,0,0,0,59.21,33.08Zm-1.64-4a1.6,1.6,0,0,0-1.16.44,1.74,1.74,0,0,0-.51,1.16h3.26a1.7,1.7,0,0,0-.46-1.17A1.53,1.53,0,0,0,57.57,29.1Z"/>
          <path class="cls-1" d="M62.63,29.94a2,2,0,0,1,.88-1.71,3.81,3.81,0,0,1,2.31-.64,4,4,0,0,1,2.29.57A2.09,2.09,0,0,1,69,29.8H67.16a.85.85,0,0,0-.42-.57,1.74,1.74,0,0,0-.9-.21,1.69,1.69,0,0,0-.9.22.65.65,0,0,0-.35.57.53.53,0,0,0,.25.45,2.17,2.17,0,0,0,.78.29l1.44.3a3.4,3.4,0,0,1,1.64.72,1.72,1.72,0,0,1,.52,1.32,2.1,2.1,0,0,1-.93,1.78,4.07,4.07,0,0,1-2.44.67,4.31,4.31,0,0,1-2.4-.58,2.13,2.13,0,0,1-1-1.65h2q.24.8,1.45.8a1.85,1.85,0,0,0,1-.22.66.66,0,0,0,.37-.58.53.53,0,0,0-.23-.45,1.92,1.92,0,0,0-.74-.28l-1.39-.3a3.34,3.34,0,0,1-1.66-.77A1.85,1.85,0,0,1,62.63,29.94Z"/>
          <path class="cls-1" d="M75.82,33.08H77.7a2.59,2.59,0,0,1-1.16,1.67,4.19,4.19,0,0,1-2.34.61,3.61,3.61,0,0,1-2.73-1,3.92,3.92,0,0,1-1-2.83,4,4,0,0,1,1-2.87,3.52,3.52,0,0,1,2.69-1.05,3.48,3.48,0,0,1,2.64,1,3.85,3.85,0,0,1,.95,2.77V32H72.5v.1A1.88,1.88,0,0,0,73,33.37a1.67,1.67,0,0,0,1.26.48,2.24,2.24,0,0,0,1-.2A1.13,1.13,0,0,0,75.82,33.08Zm-1.64-4a1.6,1.6,0,0,0-1.16.44,1.74,1.74,0,0,0-.51,1.16h3.26a1.7,1.7,0,0,0-.46-1.17A1.53,1.53,0,0,0,74.18,29.1Z"/>
          <path class="cls-1" d="M79.48,35.2V24.91h2V35.2Z"/>
          <path class="cls-1" d="M83.67,35.2V24.91h2V35.2Z"/>
          <path class="cls-1" d="M92.74,33.08h1.88a2.59,2.59,0,0,1-1.16,1.67,4.19,4.19,0,0,1-2.34.61,3.61,3.61,0,0,1-2.73-1,3.92,3.92,0,0,1-1-2.83,4,4,0,0,1,1-2.87,3.52,3.52,0,0,1,2.69-1.05,3.48,3.48,0,0,1,2.64,1,3.85,3.85,0,0,1,.95,2.77V32H89.43v.1a1.88,1.88,0,0,0,.49,1.31,1.67,1.67,0,0,0,1.26.48,2.24,2.24,0,0,0,1-.2A1.13,1.13,0,0,0,92.74,33.08Zm-1.64-4a1.6,1.6,0,0,0-1.16.44,1.74,1.74,0,0,0-.51,1.16H92.7a1.7,1.7,0,0,0-.46-1.17A1.53,1.53,0,0,0,91.1,29.1Z"/>
          <path class="cls-1" d="M96.34,35.2V27.75h2v1.19h.13a1.64,1.64,0,0,1,.7-.94,2.19,2.19,0,0,1,1.27-.37,2.55,2.55,0,0,1,.79.09v1.79a2.85,2.85,0,0,0-1-.12,2,2,0,0,0-1.35.45,1.56,1.56,0,0,0-.51,1.23V35.2Z"/>
        </g>
      </g>
    </g>
  </g>
</svg>
